<svg xmlns="http://www.w3.org/2000/svg" version="1.1" xmlns:xlink="http://www.w3.org/1999/xlink" width="771.83" height="866.74"><svg xmlns="http://www.w3.org/2000/svg" viewBox="0 0 771.83 866.74"><defs><style>.cls-1{fill:#00b1b1;}.cls-2{fill:#179393;}</style></defs><g id="SvgjsG1003" data-name="Capa 2"><g id="SvgjsG1002" data-name="Capa 1"><path class="cls-1" d="M277.58,444.24c-75-37.52-132.31-94.26-177.13-164.33C55,208.81,25.92,131.07,8,48.92,5.11,35.52,3,22,.55,8.45.07,5.75-.43,3,.62,0A487.09,487.09,0,0,1,106.07,34.51C232.75,92.91,327,184.29,385.79,311.33c4.48,9.68,8.35,19.65,12.51,29.48,2.13,1.47,2.56,3.89,3.32,6.09,14.62,42.34,23.09,85.72,21.84,130.71,0,.86,0,1.72,0,2.58-.29,7.19-1.51,8.31-8.52,7.52a384.26,384.26,0,0,1-45-8.16,427.78,427.78,0,0,1-83.26-28.69C283.28,449.27,279.27,448.29,277.58,444.24Z"></path><path class="cls-2" d="M277.58,444.24c35.08,17.9,72.18,29.82,110.77,37.28,9.6,1.86,19.31,3.21,28.94,4.91,3.11.55,4.35-.5,4.35-3.64,0-16.88,0-33.73-2-50.57-3.61-30.46-11-60-21.07-88.86a11.86,11.86,0,0,1-.28-2.55c45.49-21.76,93.41-30.61,143.69-27.22C593,317,639.8,332.86,682.5,360.7c36.53,23.82,65.91,54.74,88.62,92a9.43,9.43,0,0,1,.71,1.55c-134-49.19-250.82-26-347.78,82.26-79,104.2-85.25,214.4-27.81,330.25-1.88.11-3.78-1.42-5.72-2.44C307.14,820.34,255.06,752.19,236.34,660c-15.26-75.15-1-145.77,39.06-211.17A45.79,45.79,0,0,0,277.58,444.24Z"></path><path class="cls-1" d="M493.18,89.76a308.65,308.65,0,0,1,42.05,125.61,330.87,330.87,0,0,1,.27,69.36c-.43,4.37-2,5-5.89,4.93a311.38,311.38,0,0,0-117.15,19.95c-4.34,1.62-5.22.8-5.22-3.68,0-34.31,7.35-67.22,18.95-99.25,14.49-40,35.16-76.65,60.94-110.45,1.3-1.7,2.69-3.34,4.09-5A14.73,14.73,0,0,1,493.18,89.76Z"></path></g></g></svg><style>@media (prefers-color-scheme: light) { :root { filter: none; } }
@media (prefers-color-scheme: dark) { :root { filter: none; } }
</style></svg>